<?xml version="1.0" standalone="no"?>
<!DOCTYPE svg PUBLIC "-//W3C//DTD SVG 20010904//EN"
 "http://www.w3.org/TR/2001/REC-SVG-20010904/DTD/svg10.dtd">
<svg version="1.0" xmlns="http://www.w3.org/2000/svg"
 width="500.000000pt" height="500.000000pt" viewBox="0 0 500.000000 500.000000"
 preserveAspectRatio="xMidYMid meet">

<g transform="translate(0.000000,500.000000) scale(0.100000,-0.100000)"
fill="#000000" stroke="none">
<path d="M2879 4022 c-235 -62 -370 -269 -409 -629 -7 -62 -16 -110 -21 -107
-5 3 -9 10 -9 16 0 23 -81 192 -125 260 -159 244 -392 358 -602 292 -77 -24
-143 -89 -164 -159 -37 -129 14 -412 107 -597 l24 -48 153 0 152 0 44 163 c48
176 55 197 74 197 33 -1 42 -29 97 -301 l58 -284 1 133 c1 184 -16 172 251
172 l210 0 1 113 c1 61 4 144 8 182 6 69 6 70 35 70 36 0 40 -9 112 -290 l53
-210 1 91 c0 74 3 93 16 98 9 3 112 6 230 6 l214 0 10 25 c36 94 54 196 54
305 0 179 -39 284 -145 385 -68 65 -158 110 -249 124 -85 14 -102 13 -181 -7z
m-1149 -247 c0 -9 -7 -18 -15 -21 -26 -11 -64 -87 -71 -144 -8 -67 10 -190 42
-290 28 -88 28 -90 11 -90 -18 0 -32 32 -58 133 -30 112 -32 286 -5 337 36 68
96 115 96 75z m103 -20 c0 -5 -17 -14 -36 -18 -43 -10 -67 -35 -76 -79 -9 -46
-37 -45 -33 1 5 42 27 77 61 96 29 16 87 16 84 0z m1564 -232 c-6 -142 -12
-173 -34 -173 -12 0 -14 7 -9 28 4 15 9 81 12 147 6 136 9 154 26 137 7 -7 9
-52 5 -139z m-54 -9 c-7 -102 -15 -144 -29 -144 -12 0 -14 13 -9 78 4 42 8 83
11 90 7 25 29 5 27 -24z"/>
<path d="M2788 3154 l-3 -89 -227 -3 -228 -2 0 -174 c0 -176 -14 -331 -32
-353 -6 -7 -19 -13 -30 -13 -10 0 -21 6 -23 13 -3 6 -35 164 -73 349 l-68 336
-18 -71 c-10 -40 -25 -93 -33 -119 l-14 -48 -160 -2 -161 -3 52 -79 c29 -43
107 -134 172 -201 151 -157 304 -274 492 -376 l70 -38 105 72 c383 258 583
453 711 690 l42 77 -180 0 -179 0 -6 -157 c-9 -203 -15 -241 -40 -254 -14 -8
-22 -8 -32 3 -7 7 -38 128 -70 268 -31 140 -59 257 -61 259 -2 2 -4 -36 -6
-85z"/>
</g>
</svg>
